<mxfile host="65bd71144e">
    <diagram id="data-dictionary-educational" name="Educational Models Data Dictionary">
        <mxGraphModel dx="827" dy="800" grid="1" gridSize="10" guides="1" tooltips="1" connect="1" arrows="1" fold="1" page="1" pageScale="1" pageWidth="1169" pageHeight="827" math="0" shadow="0">
            <root>
                <mxCell id="0"/>
                <mxCell id="1" parent="0"/>
                <mxCell id="category-title" value="&lt;h2&gt;EducationalCategory&lt;/h2&gt;" style="text;html=1;strokeColor=none;fillColor=none;align=left;verticalAlign=middle;whiteSpace=wrap;rounded=0;fontStyle=1" parent="1" vertex="1">
                    <mxGeometry x="40" y="10" width="200" height="30" as="geometry"/>
                </mxCell>
                <mxCell id="category-table" value="&lt;table border=&quot;1&quot; width=&quot;100%&quot; cellpadding=&quot;4&quot; style=&quot;width: 100%; height: 100%; border-collapse: collapse;&quot;&gt;&lt;tr style=&quot;background-color: #A7C942; color: #ffffff; border: 1px solid #98bf21;&quot;&gt;&lt;th align=&quot;left&quot;&gt;Field&lt;/th&gt;&lt;th align=&quot;left&quot;&gt;Data Type&lt;/th&gt;&lt;th align=&quot;left&quot;&gt;Description&lt;/th&gt;&lt;/tr&gt;&lt;tr&gt;&lt;td&gt;id&lt;/td&gt;&lt;td&gt;AutoField&lt;/td&gt;&lt;td&gt;Primary key&lt;/td&gt;&lt;/tr&gt;&lt;tr style=&quot;background-color: #EAF2D3;&quot;&gt;&lt;td&gt;title&lt;/td&gt;&lt;td&gt;CharField(100)&lt;/td&gt;&lt;td&gt;Category title&lt;/td&gt;&lt;/tr&gt;&lt;tr&gt;&lt;td&gt;description&lt;/td&gt;&lt;td&gt;TextField&lt;/td&gt;&lt;td&gt;Detailed description (optional)&lt;/td&gt;&lt;/tr&gt;&lt;tr style=&quot;background-color: #EAF2D3;&quot;&gt;&lt;td&gt;order&lt;/td&gt;&lt;td&gt;IntegerField&lt;/td&gt;&lt;td&gt;Display order of the category&lt;/td&gt;&lt;/tr&gt;&lt;tr&gt;&lt;td&gt;created_at&lt;/td&gt;&lt;td&gt;DateTimeField&lt;/td&gt;&lt;td&gt;Record creation timestamp&lt;/td&gt;&lt;/tr&gt;&lt;/table&gt;" style="text;html=1;strokeColor=#c0c0c0;fillColor=#ffffff;overflow=fill;rounded=0;" parent="1" vertex="1">
                    <mxGeometry x="40" y="40" width="700" height="170" as="geometry"/>
                </mxCell>
                <mxCell id="topic-title" value="&lt;h2&gt;EducationalTopic&lt;/h2&gt;" style="text;html=1;strokeColor=none;fillColor=none;align=left;verticalAlign=middle;whiteSpace=wrap;rounded=0;fontStyle=1" parent="1" vertex="1">
                    <mxGeometry x="40" y="220" width="200" height="30" as="geometry"/>
                </mxCell>
                <mxCell id="topic-table" value="&lt;table border=&quot;1&quot; width=&quot;100%&quot; cellpadding=&quot;4&quot; style=&quot;width: 100%; height: 100%; border-collapse: collapse;&quot;&gt;&lt;tr style=&quot;background-color: #A7C942; color: #ffffff; border: 1px solid #98bf21;&quot;&gt;&lt;th align=&quot;left&quot;&gt;Field&lt;/th&gt;&lt;th align=&quot;left&quot;&gt;Data Type&lt;/th&gt;&lt;th align=&quot;left&quot;&gt;Description&lt;/th&gt;&lt;/tr&gt;&lt;tr&gt;&lt;td&gt;id&lt;/td&gt;&lt;td&gt;AutoField&lt;/td&gt;&lt;td&gt;Primary key&lt;/td&gt;&lt;/tr&gt;&lt;tr style=&quot;background-color: #EAF2D3;&quot;&gt;&lt;td&gt;title&lt;/td&gt;&lt;td&gt;CharField(200)&lt;/td&gt;&lt;td&gt;Topic title&lt;/td&gt;&lt;/tr&gt;&lt;tr&gt;&lt;td&gt;content&lt;/td&gt;&lt;td&gt;TextField&lt;/td&gt;&lt;td&gt;Main content of the topic&lt;/td&gt;&lt;/tr&gt;&lt;tr style=&quot;background-color: #EAF2D3;&quot;&gt;&lt;td&gt;category&lt;/td&gt;&lt;td&gt;ForeignKey&lt;/td&gt;&lt;td&gt;Reference to the EducationalCategory&lt;/td&gt;&lt;/tr&gt;&lt;tr&gt;&lt;td&gt;is_published&lt;/td&gt;&lt;td&gt;BooleanField&lt;/td&gt;&lt;td&gt;Whether the topic is published and visible&lt;/td&gt;&lt;/tr&gt;&lt;tr style=&quot;background-color: #EAF2D3;&quot;&gt;&lt;td&gt;created_by&lt;/td&gt;&lt;td&gt;ForeignKey&lt;/td&gt;&lt;td&gt;User who created the topic&lt;/td&gt;&lt;/tr&gt;&lt;tr&gt;&lt;td&gt;created_at&lt;/td&gt;&lt;td&gt;DateTimeField&lt;/td&gt;&lt;td&gt;Record creation timestamp&lt;/td&gt;&lt;/tr&gt;&lt;tr style=&quot;background-color: #EAF2D3;&quot;&gt;&lt;td&gt;updated_at&lt;/td&gt;&lt;td&gt;DateTimeField&lt;/td&gt;&lt;td&gt;Last update timestamp&lt;/td&gt;&lt;/tr&gt;&lt;/table&gt;" style="text;html=1;strokeColor=#c0c0c0;fillColor=#ffffff;overflow=fill;rounded=0;" parent="1" vertex="1">
                    <mxGeometry x="40" y="250" width="700" height="210" as="geometry"/>
                </mxCell>
                <mxCell id="attachment-title" value="&lt;h2&gt;TopicAttachment&lt;/h2&gt;" style="text;html=1;strokeColor=none;fillColor=none;align=left;verticalAlign=middle;whiteSpace=wrap;rounded=0;fontStyle=1" parent="1" vertex="1">
                    <mxGeometry x="40" y="470" width="200" height="30" as="geometry"/>
                </mxCell>
                <mxCell id="attachment-table" value="&lt;table border=&quot;1&quot; width=&quot;100%&quot; cellpadding=&quot;4&quot; style=&quot;width: 100%; height: 100%; border-collapse: collapse;&quot;&gt;&lt;tr style=&quot;background-color: #A7C942; color: #ffffff; border: 1px solid #98bf21;&quot;&gt;&lt;th align=&quot;left&quot;&gt;Field&lt;/th&gt;&lt;th align=&quot;left&quot;&gt;Data Type&lt;/th&gt;&lt;th align=&quot;left&quot;&gt;Description&lt;/th&gt;&lt;/tr&gt;&lt;tr&gt;&lt;td&gt;id&lt;/td&gt;&lt;td&gt;AutoField&lt;/td&gt;&lt;td&gt;Primary key&lt;/td&gt;&lt;/tr&gt;&lt;tr style=&quot;background-color: #EAF2D3;&quot;&gt;&lt;td&gt;topic&lt;/td&gt;&lt;td&gt;ForeignKey&lt;/td&gt;&lt;td&gt;Reference to the EducationalTopic&lt;/td&gt;&lt;/tr&gt;&lt;tr&gt;&lt;td&gt;file&lt;/td&gt;&lt;td&gt;FileField&lt;/td&gt;&lt;td&gt;Uploaded file attachment&lt;/td&gt;&lt;/tr&gt;&lt;tr style=&quot;background-color: #EAF2D3;&quot;&gt;&lt;td&gt;file_type&lt;/td&gt;&lt;td&gt;CharField(10)&lt;/td&gt;&lt;td&gt;Type of attachment (PDF, IMAGE, VIDEO, OTHER)&lt;/td&gt;&lt;/tr&gt;&lt;tr&gt;&lt;td&gt;title&lt;/td&gt;&lt;td&gt;CharField(255)&lt;/td&gt;&lt;td&gt;Title of the attachment&lt;/td&gt;&lt;/tr&gt;&lt;tr style=&quot;background-color: #EAF2D3;&quot;&gt;&lt;td&gt;description&lt;/td&gt;&lt;td&gt;TextField&lt;/td&gt;&lt;td&gt;Description of the attachment (optional)&lt;/td&gt;&lt;/tr&gt;&lt;tr&gt;&lt;td&gt;created_at&lt;/td&gt;&lt;td&gt;DateTimeField&lt;/td&gt;&lt;td&gt;Record creation timestamp&lt;/td&gt;&lt;/tr&gt;&lt;/table&gt;" style="text;html=1;strokeColor=#c0c0c0;fillColor=#ffffff;overflow=fill;rounded=0;" parent="1" vertex="1">
                    <mxGeometry x="40" y="500" width="700" height="220" as="geometry"/>
                </mxCell>
                <mxCell id="quiz-title" value="&lt;h2&gt;Quiz&lt;/h2&gt;" style="text;html=1;strokeColor=none;fillColor=none;align=left;verticalAlign=middle;whiteSpace=wrap;rounded=0;fontStyle=1" parent="1" vertex="1">
                    <mxGeometry x="70" y="800" width="200" height="30" as="geometry"/>
                </mxCell>
                <mxCell id="quiz-table" value="&lt;table border=&quot;1&quot; width=&quot;100%&quot; cellpadding=&quot;4&quot; style=&quot;width: 100%; height: 100%; border-collapse: collapse;&quot;&gt;&lt;tr style=&quot;background-color: #A7C942; color: #ffffff; border: 1px solid #98bf21;&quot;&gt;&lt;th align=&quot;left&quot;&gt;Field&lt;/th&gt;&lt;th align=&quot;left&quot;&gt;Data Type&lt;/th&gt;&lt;th align=&quot;left&quot;&gt;Description&lt;/th&gt;&lt;/tr&gt;&lt;tr&gt;&lt;td&gt;id&lt;/td&gt;&lt;td&gt;AutoField&lt;/td&gt;&lt;td&gt;Primary key&lt;/td&gt;&lt;/tr&gt;&lt;tr style=&quot;background-color: #EAF2D3;&quot;&gt;&lt;td&gt;title&lt;/td&gt;&lt;td&gt;CharField(200)&lt;/td&gt;&lt;td&gt;Quiz title&lt;/td&gt;&lt;/tr&gt;&lt;tr&gt;&lt;td&gt;description&lt;/td&gt;&lt;td&gt;TextField&lt;/td&gt;&lt;td&gt;Detailed description (optional)&lt;/td&gt;&lt;/tr&gt;&lt;tr style=&quot;background-color: #EAF2D3;&quot;&gt;&lt;td&gt;topic&lt;/td&gt;&lt;td&gt;ForeignKey&lt;/td&gt;&lt;td&gt;Related educational topic (optional)&lt;/td&gt;&lt;/tr&gt;&lt;tr&gt;&lt;td&gt;passing_score&lt;/td&gt;&lt;td&gt;PositiveIntegerField&lt;/td&gt;&lt;td&gt;Minimum percentage required to pass&lt;/td&gt;&lt;/tr&gt;&lt;tr style=&quot;background-color: #EAF2D3;&quot;&gt;&lt;td&gt;is_published&lt;/td&gt;&lt;td&gt;BooleanField&lt;/td&gt;&lt;td&gt;Whether the quiz is published&lt;/td&gt;&lt;/tr&gt;&lt;tr&gt;&lt;td&gt;created_by&lt;/td&gt;&lt;td&gt;ForeignKey&lt;/td&gt;&lt;td&gt;User who created the quiz&lt;/td&gt;&lt;/tr&gt;&lt;tr style=&quot;background-color: #EAF2D3;&quot;&gt;&lt;td&gt;created_at&lt;/td&gt;&lt;td&gt;DateTimeField&lt;/td&gt;&lt;td&gt;Record creation timestamp&lt;/td&gt;&lt;/tr&gt;&lt;tr&gt;&lt;td&gt;updated_at&lt;/td&gt;&lt;td&gt;DateTimeField&lt;/td&gt;&lt;td&gt;Last update timestamp&lt;/td&gt;&lt;/tr&gt;&lt;/table&gt;" style="text;html=1;strokeColor=#c0c0c0;fillColor=#ffffff;overflow=fill;rounded=0;" parent="1" vertex="1">
                    <mxGeometry x="70" y="830" width="700" height="270" as="geometry"/>
                </mxCell>
                <mxCell id="quiz-question-title" value="&lt;h2&gt;QuizQuestion&lt;/h2&gt;" style="text;html=1;strokeColor=none;fillColor=none;align=left;verticalAlign=middle;whiteSpace=wrap;rounded=0;fontStyle=1" parent="1" vertex="1">
                    <mxGeometry x="70" y="1130" width="200" height="30" as="geometry"/>
                </mxCell>
                <mxCell id="quiz-question-table" value="&lt;table border=&quot;1&quot; width=&quot;100%&quot; cellpadding=&quot;4&quot; style=&quot;width: 100%; height: 100%; border-collapse: collapse;&quot;&gt;&lt;tr style=&quot;background-color: #A7C942; color: #ffffff; border: 1px solid #98bf21;&quot;&gt;&lt;th align=&quot;left&quot;&gt;Field&lt;/th&gt;&lt;th align=&quot;left&quot;&gt;Data Type&lt;/th&gt;&lt;th align=&quot;left&quot;&gt;Description&lt;/th&gt;&lt;/tr&gt;&lt;tr&gt;&lt;td&gt;id&lt;/td&gt;&lt;td&gt;AutoField&lt;/td&gt;&lt;td&gt;Primary key&lt;/td&gt;&lt;/tr&gt;&lt;tr style=&quot;background-color: #EAF2D3;&quot;&gt;&lt;td&gt;quiz&lt;/td&gt;&lt;td&gt;ForeignKey&lt;/td&gt;&lt;td&gt;Reference to the Quiz model&lt;/td&gt;&lt;/tr&gt;&lt;tr&gt;&lt;td&gt;text&lt;/td&gt;&lt;td&gt;TextField&lt;/td&gt;&lt;td&gt;Question text&lt;/td&gt;&lt;/tr&gt;&lt;tr style=&quot;background-color: #EAF2D3;&quot;&gt;&lt;td&gt;question_type&lt;/td&gt;&lt;td&gt;CharField(20)&lt;/td&gt;&lt;td&gt;Type of question (MULTIPLE_CHOICE, TRUE_FALSE)&lt;/td&gt;&lt;/tr&gt;&lt;tr&gt;&lt;td&gt;points&lt;/td&gt;&lt;td&gt;PositiveIntegerField&lt;/td&gt;&lt;td&gt;Points earned for correct answer&lt;/td&gt;&lt;/tr&gt;&lt;tr style=&quot;background-color: #EAF2D3;&quot;&gt;&lt;td&gt;order&lt;/td&gt;&lt;td&gt;PositiveIntegerField&lt;/td&gt;&lt;td&gt;Display order of the question&lt;/td&gt;&lt;/tr&gt;&lt;tr&gt;&lt;td&gt;image&lt;/td&gt;&lt;td&gt;ImageField&lt;/td&gt;&lt;td&gt;Optional image for the question&lt;/td&gt;&lt;/tr&gt;&lt;/table&gt;" style="text;html=1;strokeColor=#c0c0c0;fillColor=#ffffff;overflow=fill;rounded=0;" parent="1" vertex="1">
                    <mxGeometry x="70" y="1170" width="700" height="240" as="geometry"/>
                </mxCell>
            </root>
        </mxGraphModel>
    </diagram>
</mxfile>